<svg width="20" height="12" viewBox="0 0 20 12" fill="none" xmlns="http://www.w3.org/2000/svg">
<path fill-rule="evenodd" clip-rule="evenodd" d="M12.9261 11C12.9261 11.5523 13.3738 12 13.9261 12H19C19.5523 12 20 11.5523 20 11V6C20 5.44772 19.5523 5 19 5C18.4477 5 18 5.44772 18 6V8.58579L10.7071 1.29289C10.3166 0.902369 9.68342 0.902369 9.29289 1.29289L6 4.58579L1.70711 0.292893C1.31658 -0.0976315 0.683417 -0.0976315 0.292893 0.292893C-0.0976311 0.683417 -0.0976311 1.31658 0.292893 1.70711L5.29289 6.70711C5.68342 7.09763 6.31658 7.09763 6.70711 6.70711L10 3.41421L16.5858 10H13.9261C13.3738 10 12.9261 10.4477 12.9261 11Z" fill="#FC5555"/>
</svg>
