<svg width="20" height="12" viewBox="0 0 20 12" fill="none" xmlns="http://www.w3.org/2000/svg">
<path fill-rule="evenodd" clip-rule="evenodd" d="M12.9261 1C12.9261 0.447715 13.3738 0 13.9261 0H19C19.5523 0 20 0.447715 20 1V6C20 6.55228 19.5523 7 19 7C18.4477 7 18 6.55228 18 6V3.41421L10.7071 10.7071C10.3166 11.0976 9.68342 11.0976 9.29289 10.7071L6 7.41421L1.70711 11.7071C1.31658 12.0976 0.683417 12.0976 0.292893 11.7071C-0.0976311 11.3166 -0.0976311 10.6834 0.292893 10.2929L5.29289 5.29289C5.68342 4.90237 6.31658 4.90237 6.70711 5.29289L10 8.58579L16.5858 2H13.9261C13.3738 2 12.9261 1.55228 12.9261 1Z" fill="#27AE65"/>
</svg>
