<svg width="52" height="48" viewBox="0 0 52 48" fill="none" xmlns="http://www.w3.org/2000/svg">
<rect x="0.5" y="0.5" width="51" height="47" rx="11.5" fill="#F9FAFB"/>
<rect x="0.5" y="0.5" width="51" height="47" rx="11.5" stroke="#DEE2E6"/>
<g clip-path="url(#clip0_475_11049)">
<path d="M18.5 29.8333C19.6401 29.175 20.9335 28.8285 22.25 28.8285C23.5665 28.8285 24.8599 29.175 26 29.8333C27.1401 29.175 28.4335 28.8285 29.75 28.8285C31.0665 28.8285 32.3599 29.175 33.5 29.8333" stroke="#151538" stroke-width="1.66667" stroke-linecap="round" stroke-linejoin="round"/>
<path d="M18.5 18.9999C19.6401 18.3417 20.9335 17.9951 22.25 17.9951C23.5665 17.9951 24.8599 18.3417 26 18.9999C27.1401 18.3417 28.4335 17.9951 29.75 17.9951C31.0665 17.9951 32.3599 18.3417 33.5 18.9999" stroke="#151538" stroke-width="1.66667" stroke-linecap="round" stroke-linejoin="round"/>
<path d="M18.5 19V29.8333" stroke="#151538" stroke-width="1.66667" stroke-linecap="round" stroke-linejoin="round"/>
<path d="M26 19V29.8333" stroke="#151538" stroke-width="1.66667" stroke-linecap="round" stroke-linejoin="round"/>
<path d="M33.5 19V29.8333" stroke="#151538" stroke-width="1.66667" stroke-linecap="round" stroke-linejoin="round"/>
</g>
<defs>
<clipPath id="clip0_475_11049">
<rect width="20" height="20" fill="white" transform="translate(16 14)"/>
</clipPath>
</defs>
</svg>
