<svg width="24" height="24" viewBox="0 0 24 24" fill="none" xmlns="http://www.w3.org/2000/svg">
<path d="M2.99999 7.00027L3.48628 7.00027C3.49479 7.00038 3.5033 7.00038 3.5118 7.00027L5.49999 7.00029C6.05228 7.0003 6.5 6.55259 6.5 6.0003C6.50001 5.44801 6.0523 5.0003 5.50001 5.00029L5.45848 5.00029C5.90026 4.53646 6.44543 4.16965 7.24252 3.97038C7.77831 3.83643 8.10407 3.2935 7.97013 2.7577C7.83618 2.22191 7.29324 1.89615 6.75745 2.03009C5.50639 2.34286 4.63949 2.96161 4 3.63135L4 3.50029C4 2.94801 3.55229 2.50029 3 2.50029C2.44772 2.50029 2 2.948 2 3.50029L2 6.00027C2 6.55255 2.44771 7.00026 2.99999 7.00027Z" fill="#272424"/>
<path d="M21 17.0003L20.5138 17.0003C20.5052 17.0002 20.4967 17.0002 20.4882 17.0003L18.5 17.0003C17.9477 17.0003 17.5 17.448 17.5 18.0003C17.5 18.5526 17.9477 19.0003 18.5 19.0003H18.5415C18.0998 19.4641 17.5546 19.8309 16.7575 20.0302C16.2217 20.1642 15.8959 20.7071 16.0299 21.2429C16.1638 21.7787 16.7068 22.1045 17.2426 21.9705C18.4936 21.6577 19.3605 21.039 20 20.3692V20.5003C20 21.0526 20.4477 21.5003 21 21.5003C21.5523 21.5003 22 21.0526 22 20.5003L22 18.0003C22 17.4481 21.5523 17.0003 21 17.0003Z" fill="#272424"/>
<path d="M7.79559 16.6086C7.79559 17.3337 7.22919 17.7952 6.25751 17.7952C5.46405 17.7952 5.00507 17.5095 4.8537 17.1653C4.81708 17.0847 4.79999 17.0017 4.79999 16.9211C4.79999 16.6721 4.98798 16.5012 5.24432 16.5012C5.43964 16.5012 5.57147 16.5623 5.71063 16.7576C5.8327 16.9309 6.03778 17.0017 6.26971 17.0017C6.57977 17.0017 6.7702 16.8748 6.7702 16.7014C6.7702 16.5354 6.63348 16.4646 6.23798 16.3938L5.88397 16.3303C5.18329 16.2058 4.79999 15.8518 4.79999 15.3049C4.79999 14.5969 5.41034 14.1501 6.24774 14.1501C6.94598 14.1501 7.44647 14.3967 7.62958 14.8362C7.65887 14.907 7.67352 14.9729 7.67352 15.0535C7.67352 15.2878 7.50262 15.4465 7.24384 15.449C7.02411 15.449 6.88495 15.3733 6.76044 15.1853C6.64569 15.0095 6.48212 14.9436 6.25995 14.9436C5.97186 14.9436 5.82538 15.0706 5.82538 15.2292C5.82538 15.3879 5.97675 15.4636 6.32831 15.5271L6.68231 15.5906C7.43915 15.7273 7.79559 16.0374 7.79559 16.6086Z" fill="#272424"/>
<path fill-rule="evenodd" clip-rule="evenodd" d="M8.69891 17.7952C9.0285 17.7952 9.21649 17.5999 9.21649 17.2532V16.5525H9.62909L10.093 17.3801C10.2761 17.7048 10.3786 17.7952 10.6325 17.7952C10.9328 17.7952 11.1476 17.5974 11.1476 17.3215C11.1476 17.1995 11.1281 17.1189 11.0378 16.9675L10.6691 16.3621C11.0036 16.1667 11.1696 15.7981 11.1696 15.4075C11.1696 14.6531 10.6862 14.2112 9.74628 14.2112H8.69891C8.36932 14.2112 8.18134 14.4065 8.18134 14.7532V17.2532C8.18134 17.5999 8.36932 17.7952 8.69891 17.7952ZM9.21649 15.8689V14.9753H9.64618C9.9245 14.9753 10.1125 15.1633 10.1125 15.4246C10.1125 15.6907 9.93427 15.8689 9.64374 15.8689H9.21649Z" fill="#272424"/>
<path fill-rule="evenodd" clip-rule="evenodd" d="M8 22.0002C11.3137 22.0002 14 19.314 14 16.0002C14 12.6865 11.3137 10.0002 8 10.0002C4.68629 10.0002 2 12.6865 2 16.0002C2 19.314 4.68629 22.0002 8 22.0002ZM8 20.0002C10.2091 20.0002 12 18.2094 12 16.0002C12 13.7911 10.2091 12.0002 8 12.0002C5.79086 12.0002 4 13.7911 4 16.0002C4 18.2094 5.79086 20.0002 8 20.0002Z" fill="#272424"/>
<path fill-rule="evenodd" clip-rule="evenodd" d="M15.7217 5.75024C15.7217 5.61217 15.8336 5.50024 15.9717 5.50024C16.1098 5.50024 16.2217 5.61217 16.2217 5.75024V6.16861C16.7764 6.22576 17.1714 6.46145 17.3296 6.84106C17.3589 6.91187 17.3735 6.97778 17.3735 7.05835C17.3735 7.29272 17.2026 7.45142 16.9438 7.45386C16.7241 7.45386 16.585 7.37817 16.4604 7.19019C16.3966 7.09231 16.3175 7.0285 16.2217 6.99116V7.56665L16.3823 7.59546C17.1392 7.73218 17.4956 8.04224 17.4956 8.61353C17.4956 9.27019 17.0311 9.7106 16.2217 9.78788V10.2502C16.2217 10.3883 16.1098 10.5002 15.9717 10.5002C15.8336 10.5002 15.7217 10.3883 15.7217 10.2502V9.79111C15.0723 9.74024 14.6894 9.47875 14.5537 9.17017C14.5171 9.0896 14.5 9.00659 14.5 8.92603C14.5 8.677 14.688 8.5061 14.9443 8.5061C15.1396 8.5061 15.2715 8.56714 15.4106 8.76245C15.4867 8.87039 15.5949 8.93857 15.7217 8.97465V8.35989L15.584 8.33521C14.8833 8.21069 14.5 7.85669 14.5 7.30981C14.5 6.66725 15.0027 6.23985 15.7217 6.16633V5.75024ZM15.5254 7.23413C15.5254 7.12767 15.5913 7.0355 15.7217 6.98636V7.45442C15.5866 7.40242 15.5254 7.33507 15.5254 7.23413ZM16.2217 8.97233V8.46319C16.4018 8.51905 16.4702 8.58884 16.4702 8.7063C16.4702 8.82585 16.3796 8.92334 16.2217 8.97233Z" fill="#272424"/>
<path fill-rule="evenodd" clip-rule="evenodd" d="M16 2.00024C12.6863 2.00024 10 4.68654 10 8.00024C10 8.45951 10.1493 9.3364 10.1493 9.3364C12.2866 10.0252 13.975 11.7137 14.6638 13.8509C15.0935 13.9486 15.5407 14.0002 16 14.0002C19.3137 14.0002 22 11.314 22 8.00024C22 4.68654 19.3137 2.00024 16 2.00024ZM12 8.00024C12 5.7911 13.7909 4.00024 16 4.00024C18.2091 4.00024 20 5.7911 20 8.00024C20 10.2094 18.2091 12.0002 16 12.0002C13.7909 12.0002 12 10.2094 12 8.00024Z" fill="#272424"/>
</svg>
