<svg width="153" height="153" viewBox="0 0 153 153" fill="none" xmlns="http://www.w3.org/2000/svg">
<path opacity="0.4" d="M140.25 49.7888V96.645C138.401 95.7525 136.361 95.115 134.066 94.7325L132.09 94.4138L130.432 90.9713C126.926 83.8313 121.189 79.6875 114.75 79.6875C108.311 79.6875 102.574 83.8313 99.0676 90.9713L97.3462 94.4138L95.4338 94.7325C87.8475 96.0075 82.3649 100.215 80.3887 106.207C78.4762 112.264 80.4525 118.894 85.8713 124.376L87.8475 126.353L87.6562 127.117C86.3812 132.791 86.8913 137.126 88.1025 140.25H49.7887C26.5837 140.25 12.75 126.416 12.75 103.211V49.7888C12.75 26.5838 26.5837 12.75 49.7887 12.75H103.211C126.416 12.75 140.25 26.5838 140.25 49.7888Z" fill="white"/>
<path d="M121.889 95.2422L123.929 99.3859C124.949 101.426 127.563 103.338 129.731 103.721L132.472 104.167C140.823 105.57 142.736 111.69 136.807 117.682L134.257 120.232C132.536 121.953 131.643 125.268 132.153 127.691L132.472 129.221C134.767 139.293 129.412 143.182 120.678 137.891L118.829 136.743C116.598 135.405 112.901 135.405 110.669 136.743L108.821 137.891C100.023 143.182 94.7319 139.293 97.0269 129.221L97.3456 127.691C97.8556 125.332 96.9632 121.953 95.2419 120.232L92.692 117.682C86.7632 111.626 88.6757 105.57 97.0269 104.167L99.7681 103.721C101.999 103.338 104.549 101.426 105.569 99.3859L107.609 95.2422C111.562 87.2734 117.937 87.2734 121.889 95.2422Z" fill="white"/>
<path fill-rule="evenodd" clip-rule="evenodd" d="M102.827 50.4727C104.914 52.0905 105.294 55.0938 103.676 57.1808L88.9216 76.2147C85.1293 81.0109 78.137 81.8856 73.2589 78.1162L73.2256 78.0904L61.5812 68.9275C60.8618 68.3811 59.8584 68.517 59.3121 69.2218C59.3116 69.2225 59.3126 69.2212 59.3121 69.2218L44.1426 88.9166C42.5313 91.0086 39.5292 91.3983 37.4372 89.787C35.3452 88.1757 34.9555 85.1735 36.5668 83.0815L51.7439 63.3769C55.5301 58.4771 62.5503 57.5915 67.4395 61.3695L67.4728 61.3952L79.1172 70.5582C79.8442 71.1103 80.8685 70.9681 81.4109 70.2956L96.1186 51.3223C97.7363 49.2353 100.74 48.8549 102.827 50.4727Z" fill="white"/>
</svg>
