<svg width="67" height="67" viewBox="0 0 67 67" fill="none" xmlns="http://www.w3.org/2000/svg">
<rect x="0.337646" y="0.753174" width="65.844" height="65.844" rx="32.922" fill="#E6E9EF"/>
<path fill-rule="evenodd" clip-rule="evenodd" d="M26.6754 23.7985H39.8442C43.4807 23.7985 46.4286 26.7465 46.4286 30.3829V36.9673C46.4286 40.6038 43.4807 43.5517 39.8442 43.5517H26.6754C23.039 43.5517 20.091 40.6038 20.091 36.9673V30.3829C20.091 26.7465 23.039 23.7985 26.6754 23.7985ZM16.7988 30.3829C16.7988 24.9283 21.2207 20.5063 26.6754 20.5063H39.8442C45.2989 20.5063 49.7208 24.9283 49.7208 30.3829V36.9673C49.7208 42.422 45.2989 46.8439 39.8442 46.8439H26.6754C21.2207 46.8439 16.7988 42.422 16.7988 36.9673V30.3829ZM28.3214 30.3831C27.4123 30.3831 26.6753 31.12 26.6753 32.0292C26.6753 32.9383 27.4123 33.6753 28.3214 33.6753C29.2305 33.6753 29.9675 32.9383 29.9675 32.0292C29.9675 31.12 29.2305 30.3831 28.3214 30.3831ZM33.2597 32.0292C33.2597 33.6387 32.4897 35.0684 31.298 35.9699L32.7777 37.4496C33.4205 38.0925 33.4205 39.1347 32.7777 39.7776C32.1348 40.4204 31.0926 40.4204 30.4497 39.7776L28.3215 37.6493L26.1933 39.7776C25.5504 40.4204 24.5082 40.4204 23.8653 39.7776C23.2225 39.1347 23.2225 38.0925 23.8653 37.4496L25.345 35.97C24.1532 35.0684 23.3831 33.6387 23.3831 32.0292C23.3831 29.3018 25.5941 27.0909 28.3214 27.0909C31.0488 27.0909 33.2597 29.3018 33.2597 32.0292ZM36.5519 30.3831C36.5519 29.4739 37.2889 28.737 38.198 28.737H41.4902C42.3993 28.737 43.1363 29.4739 43.1363 30.3831C43.1363 31.2922 42.3993 32.0292 41.4902 32.0292H38.198C37.2889 32.0292 36.5519 31.2922 36.5519 30.3831ZM38.198 35.3214C37.2889 35.3214 36.5519 36.0583 36.5519 36.9675C36.5519 37.8766 37.2889 38.6136 38.198 38.6136H41.4902C42.3993 38.6136 43.1363 37.8766 43.1363 36.9675C43.1363 36.0583 42.3993 35.3214 41.4902 35.3214H38.198Z" fill="#72788E"/>
</svg>
