<svg width="48" height="48" viewBox="0 0 48 48" fill="none" xmlns="http://www.w3.org/2000/svg">
<path d="M41.4613 9.08719C42.2985 10.058 42.1437 11.4747 41.1096 12.2513L29.8543 21.193C29.1157 21.8965 27.9831 21.9176 27.1601 21.2985L19.5486 15.5935L9.65733 23.4441C8.68656 24.2812 7.26979 24.1264 6.49339 23.0923C5.7167 22.1849 5.87414 20.7709 6.84491 19.9901L18.0995 10.9865C18.9015 10.3457 20.034 10.3281 20.8571 10.9436L28.4685 16.6487L38.3591 8.73546C39.3299 7.95885 40.7438 8.11642 41.4613 9.08719Z" fill="#EF6701"/>
<path opacity="0.4" d="M21.7576 24.0001V37.5065C21.7576 38.7516 20.7517 39.7575 19.5065 39.7575C18.2614 39.7575 17.2555 38.7516 17.2555 37.5065V24.0001C17.2555 22.755 18.2614 21.749 19.5065 21.749C20.7517 21.749 21.7576 22.755 21.7576 24.0001ZM12.7533 30.7533V37.5065C12.7533 38.7516 11.7453 39.7575 10.5023 39.7575C9.25928 39.7575 8.25122 38.7516 8.25122 37.5065V30.7533C8.25122 29.5082 9.25928 28.5022 10.5023 28.5022C11.7453 28.5022 12.7533 29.5082 12.7533 30.7533ZM26.2597 28.5022C26.2597 27.2571 27.2657 26.2512 28.5108 26.2512C29.7559 26.2512 30.7619 27.2571 30.7619 28.5022V37.5065C30.7619 38.7516 29.7559 39.7575 28.5108 39.7575C27.2657 39.7575 26.2597 38.7516 26.2597 37.5065V28.5022ZM39.7661 24.0001V37.5065C39.7661 38.7516 38.7602 39.7575 37.5151 39.7575C36.2699 39.7575 35.264 38.7516 35.264 37.5065V24.0001C35.264 22.755 36.2699 21.749 37.5151 21.749C38.7602 21.749 39.7661 22.755 39.7661 24.0001Z" fill="#EF6701"/>
</svg>
