<svg width="48" height="48" viewBox="0 0 48 48" fill="none" xmlns="http://www.w3.org/2000/svg">
<path d="M28.7392 22.875H26.8808C26.4901 22.875 26.1278 23.0777 25.9224 23.4103L24.0001 26.5313L22.0806 23.4094C21.8767 23.0789 21.511 22.875 21.1243 22.875H19.261C18.3807 22.875 17.8414 23.8404 18.3027 24.5892L21.7501 30.1875L18.3055 35.7851C17.8407 36.5367 18.3821 37.5 19.261 37.5H21.1194C21.5101 37.5 21.8724 37.2973 22.0778 36.9644L24.0001 33.8438L25.9203 36.9642C26.1235 37.2961 26.4892 37.5 26.8759 37.5H28.7342C29.6146 37.5 30.1538 36.5346 29.6926 35.7851L26.2501 30.1875L29.6947 24.5892C30.1595 23.8383 29.6181 22.875 28.7392 22.875ZM28.5001 6V15H37.5001L28.5001 6Z" fill="#40AD73"/>
<path opacity="0.4" d="M28.5 15V6H13.875C12.011 6 10.5 7.51102 10.5 9.375V38.625C10.5 40.4883 12.011 42 13.875 42H34.125C35.989 42 37.5 40.489 37.5 38.625V15H28.5ZM29.632 35.7844C30.1594 36.5367 29.618 37.5 28.7391 37.5H26.8807C26.49 37.5 26.1277 37.2973 25.9223 36.9644L24 33.8438L22.0798 36.9642C21.8766 37.2961 21.5109 37.5 21.1242 37.5H19.2609C18.3806 37.5 17.8413 36.5346 18.3026 35.7851L21.75 30.1875L18.3047 24.5906C17.8406 23.8383 18.382 22.875 19.2609 22.875H21.1193C21.51 22.875 21.8723 23.0777 22.0777 23.4103L24 26.5313L25.9202 23.4101C26.1234 23.0789 26.4891 22.875 26.8758 22.875H28.7341C29.6145 22.875 30.1538 23.8404 29.6925 24.5892L26.25 30.1875L29.632 35.7844Z" fill="#40AD73"/>
</svg>
