<svg width="54" height="54" viewBox="0 0 54 54" fill="none" xmlns="http://www.w3.org/2000/svg">
<path d="M32.0625 6.75012V16.8751H42.1875L32.0625 6.75012ZM33.3281 37.1251H20.6719C19.9758 37.1251 19.4062 37.6947 19.4062 38.3907C19.4062 39.0868 19.9758 39.6564 20.6719 39.6564H33.3281C34.0271 39.6564 34.5938 39.0897 34.5938 38.3907C34.5938 37.6918 34.0242 37.1251 33.3281 37.1251ZM33.3281 32.0626H20.6719C19.9758 32.0626 19.4062 32.6322 19.4062 33.3282C19.4062 34.0243 19.9758 34.5939 20.6719 34.5939H33.3281C34.0271 34.5939 34.5938 34.0272 34.5938 33.3282C34.5938 32.6293 34.0242 32.0626 33.3281 32.0626ZM33.3281 27.0001H20.6719C19.9758 27.0001 19.4062 27.5697 19.4062 28.2657C19.4062 28.9618 19.9758 29.5314 20.6719 29.5314H33.3281C34.0242 29.5314 34.5938 28.9618 34.5938 28.2657C34.5938 27.5697 34.0242 27.0001 33.3281 27.0001Z" fill="#717171"/>
<path opacity="0.4" d="M32.0623 16.8751V6.75012H15.6091C13.5121 6.75012 11.8123 8.45001 11.8123 10.547V43.4532C11.8123 45.5494 13.5121 47.2501 15.6091 47.2501H38.3904C40.4874 47.2501 42.1873 45.5502 42.1873 43.4532V16.8751H32.0623ZM33.3279 39.6564H20.6716C19.9755 39.6564 19.406 39.0868 19.406 38.3907C19.406 37.6947 19.9755 37.1251 20.6716 37.1251H33.3279C34.0268 37.1251 34.5935 37.6918 34.5935 38.3907C34.5935 39.0897 34.024 39.6564 33.3279 39.6564ZM33.3279 34.5939H20.6716C19.9755 34.5939 19.406 34.0243 19.406 33.3282C19.406 32.6322 19.9755 32.0626 20.6716 32.0626H33.3279C34.0268 32.0626 34.5935 32.6293 34.5935 33.3282C34.5935 34.0272 34.024 34.5939 33.3279 34.5939ZM33.3279 29.5314H20.6716C19.9755 29.5314 19.406 28.9618 19.406 28.2657C19.406 27.5697 19.9755 27.0001 20.6716 27.0001H33.3279C34.024 27.0001 34.5935 27.5697 34.5935 28.2657C34.5935 28.9618 34.024 29.5314 33.3279 29.5314Z" fill="#717171"/>
</svg>
