<svg width="48" height="48" viewBox="0 0 48 48" fill="none" xmlns="http://www.w3.org/2000/svg">
<path d="M26.25 17.25V6L37.5 17.25H26.25ZM16.6875 21.75C18.8602 21.75 20.625 23.5148 20.625 25.6875C20.625 27.8602 18.8602 29.625 16.6875 29.625H16.125V31.875C16.125 32.4937 15.6216 33 15 33C14.3784 33 13.875 32.4937 13.875 31.875V22.875C13.875 22.2563 14.3784 21.75 15 21.75H16.6875ZM18.375 25.6875C18.375 24.7523 17.6227 24 16.6875 24H16.125V27.375H16.6875C17.6227 27.375 18.375 26.6227 18.375 25.6875ZM21.75 22.875C21.75 22.2563 22.2563 21.75 22.875 21.75H24.5625C26.4258 21.75 27.9375 23.2617 27.9375 25.125V29.625C27.9375 31.4883 26.4258 33 24.5625 33H22.875C22.2563 33 21.75 32.4937 21.75 31.875V22.875ZM24 30.75H24.5625C25.1813 30.75 25.6875 30.2437 25.6875 29.625V25.125C25.6875 24.5063 25.1813 24 24.5625 24H24V30.75ZM34.125 21.75C34.7438 21.75 35.25 22.2563 35.25 22.875C35.25 23.4937 34.7438 24 34.125 24H31.875V26.25H34.125C34.7438 26.25 35.25 26.7563 35.25 27.375C35.25 27.9937 34.7438 28.5 34.125 28.5H31.875V31.875C31.875 32.4937 31.3688 33 30.75 33C30.1313 33 29.625 32.4937 29.625 31.875V22.875C29.625 22.2563 30.1313 21.75 30.75 21.75H34.125Z" fill="#FF2116"/>
<path opacity="0.4" d="M16.6875 27.375H16.125V24H16.6875C17.6227 24 18.375 24.7523 18.375 25.6875C18.375 26.6227 17.6227 27.375 16.6875 27.375ZM24 24H24.5625C25.1813 24 25.6875 24.5063 25.6875 25.125V29.625C25.6875 30.2438 25.1813 30.75 24.5625 30.75H24V24ZM10.5 10.5C10.5 8.01445 12.5145 6 15 6H26.25V17.25H37.5V37.5C37.5 39.982 35.482 42 33 42H15C12.5145 42 10.5 39.982 10.5 37.5V10.5ZM15 21.75C14.3784 21.75 13.875 22.2563 13.875 22.875V31.875C13.875 32.4938 14.3784 33 15 33C15.6216 33 16.125 32.4938 16.125 31.875V29.625H16.6875C18.8602 29.625 20.625 27.8602 20.625 25.6875C20.625 23.5148 18.8602 21.75 16.6875 21.75H15ZM21.75 31.875C21.75 32.4938 22.2563 33 22.875 33H24.5625C26.4258 33 27.9375 31.4883 27.9375 29.625V25.125C27.9375 23.2617 26.4258 21.75 24.5625 21.75H22.875C22.2563 21.75 21.75 22.2563 21.75 22.875V31.875ZM30.75 21.75C30.1313 21.75 29.625 22.2563 29.625 22.875V31.875C29.625 32.4938 30.1313 33 30.75 33C31.3688 33 31.875 32.4938 31.875 31.875V28.5H34.125C34.7438 28.5 35.25 27.9938 35.25 27.375C35.25 26.7563 34.7438 26.25 34.125 26.25H31.875V24H34.125C34.7438 24 35.25 23.4938 35.25 22.875C35.25 22.2563 34.7438 21.75 34.125 21.75H30.75Z" fill="#FF2116"/>
</svg>
