<svg width="42" height="42" viewBox="0 0 42 42" fill="none" xmlns="http://www.w3.org/2000/svg">
<g clip-path="url(#clip0_1149_7742)">
<path d="M20.9985 3.98267C23.2864 3.98267 25.4806 4.89152 27.0983 6.50928C28.7161 8.12705 29.625 10.3212 29.625 12.6091V17.7849C30.9977 17.7849 32.3142 18.3302 33.2848 19.3009C34.2555 20.2716 34.8008 21.588 34.8008 22.9608V33.3125C34.8008 34.6852 34.2555 36.0017 33.2848 36.9723C32.3142 37.943 30.9977 38.4883 29.625 38.4883H12.3721C10.9994 38.4883 9.68292 37.943 8.71226 36.9723C7.7416 36.0017 7.19629 34.6852 7.19629 33.3125V22.9608C7.19629 21.588 7.7416 20.2716 8.71226 19.3009C9.68292 18.3302 10.9994 17.7849 12.3721 17.7849V12.6091C12.3721 10.3212 13.281 8.12705 14.8988 6.50928C16.5165 4.89152 18.7107 3.98267 20.9985 3.98267ZM20.9985 24.6861C20.128 24.6858 19.2895 25.0146 18.6512 25.6065C18.0129 26.1984 17.6219 27.0097 17.5566 27.8778L17.548 28.1366C17.548 28.8191 17.7504 29.4862 18.1295 30.0536C18.5087 30.6211 19.0476 31.0634 19.6781 31.3245C20.3086 31.5857 21.0024 31.654 21.6717 31.5209C22.3411 31.3877 22.9559 31.0591 23.4385 30.5765C23.921 30.094 24.2497 29.4791 24.3828 28.8098C24.516 28.1404 24.4476 27.4466 24.1865 26.8161C23.9253 26.1856 23.483 25.6467 22.9156 25.2676C22.3481 24.8884 21.681 24.6861 20.9985 24.6861ZM20.9985 7.43323C19.6258 7.43323 18.3093 7.97854 17.3387 8.9492C16.368 9.91986 15.8227 11.2364 15.8227 12.6091V17.7849H26.1744V12.6091C26.1744 11.2364 25.6291 9.91986 24.6584 8.9492C23.6878 7.97854 22.3713 7.43323 20.9985 7.43323Z" fill="#40846B"/>
</g>
<defs>
<clipPath id="clip0_1149_7742">
<rect width="41.4068" height="41.4068" fill="white" transform="translate(0.29541 0.532227)"/>
</clipPath>
</defs>
</svg>
