<svg width="89" height="29" viewBox="0 0 89 29" fill="none" xmlns="http://www.w3.org/2000/svg">
<path d="M37.8129 2.58341C38.4939 3.28471 38.8353 4.25177 38.8353 5.48828V11.6081H36.3697V5.79464C36.3697 5.15793 36.1981 4.67071 35.8529 4.33298C35.5097 3.99524 35.0501 3.8273 34.4762 3.8273C33.8395 3.8273 33.3301 4.02477 32.9462 4.41972C32.5642 4.81466 32.3723 5.40708 32.3723 6.19697V11.6099H29.9066V1.5333H32.3723V2.87131C32.9702 1.97992 33.9207 1.5333 35.2199 1.5333C36.2645 1.5333 37.1282 1.88395 37.8092 2.58526L37.8129 2.58341Z" fill="white"/>
<path d="M45.5254 9.38788C46.4685 9.38788 47.1827 9.06862 47.6662 8.43191L49.628 9.64258C48.6849 11.0064 46.967 11.6874 45.4608 11.6874C43.9546 11.6874 42.639 11.1448 41.683 10.1889C40.727 9.23287 40.249 8.02958 40.249 6.57715C40.249 5.12471 40.7196 3.93617 41.6627 2.97465C42.6058 2.01313 43.8164 1.53145 45.2947 1.53145C46.6973 1.53145 47.8526 2.01498 48.7643 2.98389C49.676 3.9528 50.1318 5.15055 50.1318 6.57715C50.1318 6.89643 50.1005 7.23416 50.0359 7.59035H42.8291C43.1594 8.7881 44.0582 9.38788 45.5235 9.38788H45.5254ZM47.6662 5.68022C47.526 5.03059 47.2362 4.54706 46.797 4.22778C46.3577 3.9085 45.8576 3.74979 45.2965 3.74979C44.634 3.74979 44.0859 3.91771 43.6522 4.25545C43.2185 4.59318 42.9324 5.0675 42.7922 5.68022H47.6662Z" fill="white"/>
<path d="M52.5495 10.163C51.5751 9.18858 51.0878 7.99613 51.0878 6.57899C51.0878 5.16186 51.5751 3.96941 52.5495 2.99496C53.5239 2.02052 54.718 1.5333 56.1335 1.5333C57.549 1.5333 58.745 2.02052 59.7268 2.99496C60.7086 3.96941 61.1977 5.16531 61.1977 6.57899C61.1977 7.99267 60.7068 9.18858 59.7268 10.163C58.7468 11.1375 57.5472 11.6247 56.1335 11.6247C54.7198 11.6247 53.5239 11.1375 52.5495 10.163ZM57.9883 8.47067C58.4847 7.97422 58.7339 7.34305 58.7339 6.57899C58.7339 5.81494 58.4847 5.18377 57.9883 4.68732C57.4918 4.19087 56.8736 3.94172 56.1335 3.94172C55.3935 3.94172 54.7789 4.19087 54.2898 4.68732C53.7989 5.18377 53.5535 5.81494 53.5535 6.57899C53.5535 7.34305 53.7989 7.97422 54.2898 8.47067C54.7807 8.96712 55.3953 9.21626 56.1335 9.21626C56.8717 9.21626 57.49 8.96712 57.9883 8.47067Z" fill="white"/>
<path d="M65.8429 3.91773V8.3341C65.8429 8.66629 65.9259 8.90808 66.092 9.06126C66.2581 9.21444 66.4999 9.29931 66.8192 9.31961C67.1385 9.33807 67.5334 9.33622 68.004 9.31039V11.5472C66.3098 11.7391 65.1139 11.5785 64.42 11.0692C63.7261 10.5598 63.3791 9.64812 63.3791 8.33594V3.91958H61.7163V1.54991H63.3791V0.248812H65.8447V1.54991H68.004V3.91958H65.8447L65.8429 3.91773Z" fill="white"/>
<path d="M74.0426 9.38788C74.9857 9.38788 75.6999 9.06862 76.1834 8.43191L78.1711 9.57799C77.228 10.9418 75.8383 11.6228 74.0038 11.6228C72.4241 11.6228 71.1562 11.1448 70.2002 10.1889C69.2442 9.23287 68.7662 8.02959 68.7662 6.57715C68.7662 5.12471 69.2368 3.93617 70.1799 2.97465C71.123 2.01313 72.3336 1.53145 73.8119 1.53145C75.2145 1.53145 76.3698 2.01498 77.2815 2.98389C78.1932 3.9528 78.6491 5.15055 78.6491 6.57715C78.6491 6.89643 78.6177 7.23416 78.5531 7.59035H71.3463C71.6766 8.7881 72.5754 9.38788 74.0407 9.38788H74.0426ZM76.1834 5.68022C76.0432 5.03059 75.7534 4.54706 75.3142 4.22778C74.8749 3.9085 74.3748 3.74979 73.8138 3.74979C73.1512 3.74979 72.6031 3.91771 72.1694 4.25545C71.7357 4.59318 71.4496 5.0675 71.3094 5.68022H76.1834Z" fill="white"/>
<path d="M86.0238 11.6339L82.6446 7.39472V11.6302H80.179V0.245117H82.6446V6.38152L85.9315 2.17555H88.8752L85.0328 6.89643L88.8899 11.6339H86.022H86.0238Z" fill="white"/>
<path d="M82.6926 13.8633H80.3396V16.2164H82.6926V13.8633Z" fill="white"/>
<path d="M80.3396 17.3163V21.1956C80.3396 21.5924 80.0609 21.9154 79.7195 21.9154H76.7463V17.3163H74.3933V21.9154H67.9616C67.8028 20.7398 67.3101 19.7303 66.487 18.8906C65.4682 17.8497 64.1579 17.3292 62.5578 17.3292C61.0408 17.3292 59.7895 17.8534 58.804 18.9016C57.9588 19.8004 57.4752 20.8819 57.3553 22.1461C57.335 22.3546 57.3257 22.5706 57.3257 22.7883C57.3257 23.1334 57.3608 23.8827 57.4291 24.2703H65.2265C64.8666 25.5659 63.9586 25.9553 62.3733 25.9553C61.9968 25.9553 61.6461 25.8925 61.3269 25.7763L60.4668 27.9854C61.0371 28.1607 61.6664 28.2493 62.3511 28.2493C64.0601 28.2493 65.4332 27.7325 66.4667 26.6972C67.1551 26.0088 67.6164 25.1986 67.8453 24.2703H74.3563C76.0911 24.0673 76.6448 22.9637 76.6448 22.9637V24.2703H79.7195C81.3583 24.2703 82.6926 22.8917 82.6926 21.1956V17.3163H80.3396ZM59.9298 21.8803C60.083 21.1772 60.4595 20.5903 60.9338 20.2452C61.4099 19.9019 61.9507 19.7284 62.5578 19.7284C63.2758 19.7284 63.8682 19.9111 64.3369 20.2766C64.8057 20.642 65.1785 21.2178 65.3298 21.8803H59.9298Z" fill="white"/>
<path d="M56.1594 21.1956C56.1594 22.8529 54.8859 24.2075 53.2969 24.2666L48.4653 24.2684V22.9637C48.4653 22.9637 47.9135 24.0673 46.1769 24.2684H32.7211C31.0822 24.2684 29.7479 22.8898 29.7479 21.1938V17.3145H32.101V21.1938C32.101 21.5924 32.3778 21.9154 32.7211 21.9154H46.2618V13.7618H48.6148V21.9154H53.1862C53.5276 21.9154 53.8063 21.5924 53.8063 21.1938V17.3145H56.1594V21.1956Z" fill="white"/>
<path d="M42.4876 19.9241H38.0934L38.099 19.9296L35.578 19.9333V17.4086L39.0697 13.9169L40.5148 15.3619L37.9993 17.8755H42.4895L42.4876 19.9241Z" fill="white"/>
<path d="M56.1575 13.8947H51.2373V16.1832H56.1575V13.8947Z" fill="white"/>
<path d="M76.6448 25.8962H71.7892V28.2493H76.6448V25.8962Z" fill="white"/>
<path d="M24.1523 5.14315V13.8818H20.5368V7.59035L14.9209 13.2082L12.3574 10.6428L17.8571 5.14315H11.7982V1.5296H20.5368L24.1523 5.14315Z" fill="#EF6701"/>
<path d="M24.1522 17.5082V21.0812L20.5368 24.6985H4.5988L0.983398 21.0812V5.14315L4.5988 1.5296H8.1736V5.14315H4.5988V21.0812H20.5368V17.5082H24.1522Z" fill="white"/>
</svg>
