<svg width="200" height="61" viewBox="0 0 200 61" fill="none" xmlns="http://www.w3.org/2000/svg">
<path d="M86.572 9.59165C87.8445 10.902 88.4824 12.709 88.4824 15.0194V26.4543H83.8754V15.5919C83.8754 14.4022 83.5547 13.4918 82.9098 12.8607C82.2684 12.2297 81.4098 11.9159 80.3373 11.9159C79.1476 11.9159 78.1959 12.2848 77.4786 13.0228C76.7648 13.7608 76.4062 14.8677 76.4062 16.3436V26.4578H71.7991V7.62951H76.4062V10.1296C77.5234 8.46402 79.2994 7.62951 81.727 7.62951C83.6788 7.62951 85.2927 8.28471 86.5651 9.5951L86.572 9.59165Z" fill="black"/>
<path d="M100.983 22.3058C102.745 22.3058 104.08 21.7093 104.983 20.5196L108.649 22.7818C106.887 25.3301 103.676 26.6026 100.862 26.6026C98.0479 26.6026 95.5896 25.5888 93.8033 23.8025C92.017 22.0162 91.1239 19.7679 91.1239 17.054C91.1239 14.3401 92.0033 12.1193 93.7654 10.3227C95.5275 8.52608 97.7897 7.62606 100.552 7.62606C103.173 7.62606 105.331 8.52953 107.035 10.34C108.738 12.1504 109.59 14.3884 109.59 17.054C109.59 17.6505 109.531 18.2816 109.411 18.9471H95.9448C96.562 21.1852 98.2414 22.3058 100.979 22.3058H100.983ZM104.983 15.3781C104.721 14.1642 104.18 13.2607 103.359 12.6642C102.538 12.0676 101.604 11.771 100.555 11.771C99.3173 11.771 98.2931 12.0848 97.4827 12.7159C96.6724 13.3469 96.1379 14.2332 95.8758 15.3781H104.983Z" fill="black"/>
<path d="M114.107 23.7542C112.287 21.9335 111.376 19.7054 111.376 17.0574C111.376 14.4095 112.287 12.1814 114.107 10.3606C115.928 8.53989 118.159 7.62951 120.804 7.62951C123.449 7.62951 125.684 8.53989 127.518 10.3606C129.353 12.1814 130.267 14.416 130.267 17.0574C130.267 19.6989 129.349 21.9335 127.518 23.7542C125.687 25.575 123.446 26.4853 120.804 26.4853C118.163 26.4853 115.928 25.575 114.107 23.7542ZM124.27 20.592C125.198 19.6644 125.663 18.4851 125.663 17.0574C125.663 15.6298 125.198 14.4504 124.27 13.5228C123.342 12.5952 122.187 12.1297 120.804 12.1297C119.421 12.1297 118.273 12.5952 117.359 13.5228C116.442 14.4504 115.983 15.6298 115.983 17.0574C115.983 18.4851 116.442 19.6644 117.359 20.592C118.277 21.5196 119.425 21.9852 120.804 21.9852C122.184 21.9852 123.339 21.5196 124.27 20.592Z" fill="black"/>
<path d="M138.946 12.0848V20.3368C138.946 20.9576 139.101 21.4093 139.412 21.6956C139.722 21.9818 140.174 22.1404 140.77 22.1783C141.367 22.2128 142.105 22.2093 142.984 22.161V26.3405C139.819 26.6991 137.584 26.3991 136.288 25.4474C134.991 24.4956 134.343 22.7921 134.343 20.3403V12.0883H131.236V7.66055H134.343V5.22944H138.95V7.66055H142.984V12.0883H138.95L138.946 12.0848Z" fill="black"/>
<path d="M154.267 22.3058C156.03 22.3058 157.364 21.7093 158.268 20.5196L161.982 22.6611C160.219 25.2094 157.623 26.4819 154.195 26.4819C151.243 26.4819 148.874 25.5888 147.088 23.8025C145.302 22.0162 144.409 19.7679 144.409 17.054C144.409 14.3401 145.288 12.1193 147.05 10.3227C148.812 8.52608 151.074 7.62606 153.836 7.62606C156.457 7.62606 158.616 8.52954 160.319 10.34C162.023 12.1504 162.875 14.3884 162.875 17.054C162.875 17.6505 162.816 18.2816 162.695 18.9471H149.229C149.847 21.1852 151.526 22.3058 154.264 22.3058H154.267ZM158.268 15.3781C158.006 14.1642 157.464 13.2607 156.643 12.6642C155.823 12.0676 154.888 11.771 153.84 11.771C152.602 11.771 151.578 12.0848 150.767 12.7159C149.957 13.3469 149.422 14.2332 149.16 15.3781H158.268Z" fill="black"/>
<path d="M176.654 26.5026L170.34 18.5816V26.4957H165.733V5.22253H170.34V16.6884L176.482 8.82956H181.982L174.803 17.6505L182.01 26.5026H176.651H176.654Z" fill="black"/>
<path d="M170.43 30.6682H166.033V35.0649H170.43V30.6682Z" fill="black"/>
<path d="M166.033 37.1202V44.3687C166.033 45.1101 165.513 45.7136 164.875 45.7136H159.319V37.1202H154.923V45.7136H142.905C142.608 43.517 141.688 41.6307 140.15 40.0617C138.246 38.1168 135.798 37.1443 132.808 37.1443C129.974 37.1443 127.636 38.1237 125.794 40.0824C124.215 41.7617 123.311 43.7825 123.087 46.1446C123.049 46.5343 123.032 46.9378 123.032 47.3447C123.032 47.9895 123.097 49.3896 123.225 50.1137H137.794C137.122 52.5345 135.425 53.2621 132.463 53.2621C131.76 53.2621 131.105 53.1449 130.508 52.9276L128.901 57.0554C129.967 57.383 131.143 57.5485 132.422 57.5485C135.615 57.5485 138.181 56.5829 140.112 54.6484C141.398 53.3621 142.26 51.8483 142.688 50.1137H154.854C158.095 49.7344 159.13 47.6723 159.13 47.6723V50.1137H164.875C167.937 50.1137 170.43 47.5378 170.43 44.3687V37.1202H166.033ZM127.898 45.6481C128.184 44.3342 128.887 43.2376 129.774 42.5928C130.663 41.9514 131.674 41.6272 132.808 41.6272C134.15 41.6272 135.256 41.9686 136.132 42.6514C137.008 43.3342 137.705 44.4101 137.988 45.6481H127.898Z" fill="black"/>
<path d="M120.853 44.3687C120.853 47.4654 118.473 49.9965 115.504 50.1068L106.476 50.1103V47.6723C106.476 47.6723 105.445 49.7344 102.2 50.1103H77.0579C73.9957 50.1103 71.5025 47.5343 71.5025 44.3653V37.1167H75.8992V44.3653C75.8992 45.1101 76.4165 45.7136 77.0579 45.7136H102.359V30.4786H106.755V45.7136H115.297C115.935 45.7136 116.456 45.1101 116.456 44.3653V37.1167H120.853V44.3687Z" fill="black"/>
<path d="M95.3068 41.9928H87.0962L87.1065 42.0031L82.396 42.01V37.2926L88.9204 30.7683L91.6205 33.4683L86.9203 38.1651H95.3102L95.3068 41.9928Z" fill="black"/>
<path d="M120.849 30.7269H111.656V35.0029H120.849V30.7269Z" fill="black"/>
<path d="M159.13 53.1518H150.057V57.5485H159.13V53.1518Z" fill="black"/>
<path d="M61.047 14.3745V30.7027H54.2916V18.9471L43.7981 29.4441L39.0083 24.6508L49.2845 14.3745H37.9635V7.6226H54.2916L61.047 14.3745Z" fill="#EF6701"/>
<path d="M61.047 37.4788V44.1549L54.2916 50.9138H24.5113L17.7559 44.1549V14.3745L24.5113 7.6226H31.1908V14.3745H24.5113V44.1549H54.2916V37.4788H61.047Z" fill="black"/>
</svg>
