<svg width="52" height="48" viewBox="0 0 52 48" fill="none" xmlns="http://www.w3.org/2000/svg">
<rect x="0.5" y="0.5" width="51" height="47" rx="11.5" fill="#F9FAFB"/>
<rect x="0.5" y="0.5" width="51" height="47" rx="11.5" stroke="#DEE2E6"/>
<path d="M23.4997 28.1667V29C23.4997 29.663 23.7631 30.2989 24.2319 30.7678C24.7007 31.2366 25.3366 31.5 25.9997 31.5C26.6627 31.5 27.2986 31.2366 27.7674 30.7678C28.2363 30.2989 28.4997 29.663 28.4997 29V28.1667M24.333 18.1667C24.333 17.7246 24.5086 17.3007 24.8212 16.9882C25.1337 16.6756 25.5576 16.5 25.9997 16.5C26.4417 16.5 26.8656 16.6756 27.1782 16.9882C27.4907 17.3007 27.6663 17.7246 27.6663 18.1667C28.6233 18.6192 29.4392 19.3236 30.0264 20.2044C30.6136 21.0852 30.95 22.1092 30.9997 23.1667V25.6667C31.0624 26.1848 31.2459 26.6809 31.5354 27.1151C31.8248 27.5493 32.2122 27.9095 32.6663 28.1667H19.333C19.7871 27.9095 20.1745 27.5493 20.464 27.1151C20.7535 26.6809 20.937 26.1848 20.9997 25.6667V23.1667C21.0493 22.1092 21.3858 21.0852 21.973 20.2044C22.5602 19.3236 23.376 18.6192 24.333 18.1667Z" stroke="#151538" stroke-width="1.75" stroke-linecap="round" stroke-linejoin="round"/>
</svg>
