<svg width="409" height="409" viewBox="0 0 409 409" fill="none" xmlns="http://www.w3.org/2000/svg">
<circle cx="204.645" cy="204.645" r="204.356" fill="#F4FFFD"/>
<circle cx="204.644" cy="204.644" r="158.661" fill="#DEFFFA"/>
<path d="M205.911 320.151C269.002 320.151 320.147 269.006 320.147 205.915C320.147 142.824 269.002 91.6792 205.911 91.6792C142.82 91.6792 91.6753 142.824 91.6753 205.915C91.6753 269.006 142.82 320.151 205.911 320.151Z" fill="#26BFA6"/>
<path d="M189.69 246.812C187.405 246.812 185.235 245.898 183.635 244.298L151.306 211.97C147.994 208.657 147.994 203.173 151.306 199.861C154.619 196.548 160.103 196.548 163.415 199.861L189.69 226.135L248.407 167.417C251.72 164.105 257.203 164.105 260.516 167.417C263.829 170.73 263.829 176.214 260.516 179.527L195.744 244.298C194.145 245.898 191.974 246.812 189.69 246.812Z" fill="white"/>
</svg>
