<svg width="52" height="53" viewBox="0 0 52 53" fill="none" xmlns="http://www.w3.org/2000/svg">
<g filter="url(#filter0_d_472_7877)">
<rect x="2" y="1.5" width="48" height="48" rx="10" fill="white" shape-rendering="crispEdges"/>
<rect x="2.5" y="2" width="47" height="47" rx="9.5" stroke="#EAECF0" shape-rendering="crispEdges"/>
<g clip-path="url(#clip0_472_7877)">
<path d="M30 31.5C30.5304 31.5 31.0391 31.7107 31.4142 32.0858C31.7893 32.4609 32 32.9696 32 33.5C32 32.9696 32.2107 32.4609 32.5858 32.0858C32.9609 31.7107 33.4696 31.5 34 31.5C33.4696 31.5 32.9609 31.2893 32.5858 30.9142C32.2107 30.5391 32 30.0304 32 29.5C32 30.0304 31.7893 30.5391 31.4142 30.9142C31.0391 31.2893 30.5304 31.5 30 31.5ZM30 19.5C30.5304 19.5 31.0391 19.7107 31.4142 20.0858C31.7893 20.4609 32 20.9696 32 21.5C32 20.9696 32.2107 20.4609 32.5858 20.0858C32.9609 19.7107 33.4696 19.5 34 19.5C33.4696 19.5 32.9609 19.2893 32.5858 18.9142C32.2107 18.5391 32 18.0304 32 17.5C32 18.0304 31.7893 18.5391 31.4142 18.9142C31.0391 19.2893 30.5304 19.5 30 19.5ZM23 31.5C23 29.9087 23.6321 28.3826 24.7574 27.2574C25.8826 26.1321 27.4087 25.5 29 25.5C27.4087 25.5 25.8826 24.8679 24.7574 23.7426C23.6321 22.6174 23 21.0913 23 19.5C23 21.0913 22.3679 22.6174 21.2426 23.7426C20.1174 24.8679 18.5913 25.5 17 25.5C18.5913 25.5 20.1174 26.1321 21.2426 27.2574C22.3679 28.3826 23 29.9087 23 31.5Z" stroke="#344054" stroke-width="2" stroke-linecap="round" stroke-linejoin="round"/>
</g>
</g>
<defs>
<filter id="filter0_d_472_7877" x="0" y="0.5" width="52" height="52" filterUnits="userSpaceOnUse" color-interpolation-filters="sRGB">
<feFlood flood-opacity="0" result="BackgroundImageFix"/>
<feColorMatrix in="SourceAlpha" type="matrix" values="0 0 0 0 0 0 0 0 0 0 0 0 0 0 0 0 0 0 127 0" result="hardAlpha"/>
<feOffset dy="1"/>
<feGaussianBlur stdDeviation="1"/>
<feComposite in2="hardAlpha" operator="out"/>
<feColorMatrix type="matrix" values="0 0 0 0 0.0627451 0 0 0 0 0.0941176 0 0 0 0 0.156863 0 0 0 0.05 0"/>
<feBlend mode="normal" in2="BackgroundImageFix" result="effect1_dropShadow_472_7877"/>
<feBlend mode="normal" in="SourceGraphic" in2="effect1_dropShadow_472_7877" result="shape"/>
</filter>
<clipPath id="clip0_472_7877">
<rect width="24" height="24" fill="white" transform="translate(14 13.5)"/>
</clipPath>
</defs>
</svg>
