<svg width="18" height="19" viewBox="0 0 18 19" fill="none" xmlns="http://www.w3.org/2000/svg">
<path d="M17.5283 15.4893C17.4163 16.3955 17.3668 16.7884 16.9482 17.6719L10.5195 19C10.6673 18.0448 10.8644 17.3081 11.1846 16.8662L17.5283 15.4893ZM8.57324 9.23633L10.4941 8.81934V2.74902C11.21 1.9455 11.6506 1.58499 12.5146 1.12891V8.38086L17.5283 7.29297C17.4162 8.19956 17.367 8.59278 16.9482 9.47656L12.5146 10.4131V12.4521L17.5283 11.3906C17.4162 12.2972 17.3668 12.6906 16.9482 13.5742L12.5146 14.4893V14.5088L10.4941 14.9268V10.8408L8.57324 11.2461V13.8213L8.54102 13.8271C8.09921 14.602 7.47538 15.5331 6.87402 16.2764L0.563477 17.4775C0.620059 16.666 0.73851 16.209 1.10547 15.3916L6.55371 14.21V11.6729L1.50391 12.7412C1.56049 11.9294 1.67878 11.472 2.0459 10.6543L6.55371 9.6748V1.62012C7.26948 0.816655 7.7093 0.456044 8.57324 0V9.23633Z" fill="#F85454"/>
</svg>
