<svg width="17" height="20" viewBox="0 0 17 20" fill="none" xmlns="http://www.w3.org/2000/svg">
<path d="M17 16.002C16.8877 16.9103 16.8384 17.304 16.4189 18.1895L9.97656 19.5195C10.1246 18.5627 10.3218 17.8246 10.6426 17.3818L17 16.002ZM8.02637 9.73633L9.95215 9.31836V3.23535C10.6693 2.43031 11.1098 2.06832 11.9756 1.61133V8.87891L17 7.78906C16.8877 8.69731 16.8385 9.09103 16.4189 9.97656L11.9756 10.916V12.959L17 11.8955C16.8877 12.8039 16.8384 13.1976 16.4189 14.083L11.9756 15.001V15.0195L9.95215 15.4385V11.3438L8.02637 11.751V14.3311L7.99414 14.3369C7.55136 15.1134 6.92586 16.0462 6.32324 16.791L0 17.9951C0.0566926 17.1817 0.175167 16.7236 0.542969 15.9043L6.00293 14.7207V12.1787L0.942383 13.249C0.99908 12.4354 1.11744 11.9767 1.48535 11.1572L6.00293 10.1758V2.10352C6.71999 1.29864 7.16084 0.937366 8.02637 0.480469V9.73633Z" fill="#26AE64"/>
</svg>
