<svg width="52" height="48" viewBox="0 0 52 48" fill="none" xmlns="http://www.w3.org/2000/svg">
<rect x="0.5" y="0.5" width="51" height="47" rx="11.5" fill="#F9FAFB"/>
<rect x="0.5" y="0.5" width="51" height="47" rx="11.5" stroke="#DEE2E6"/>
<path d="M33.5 31.5L28.5 26.5M18.5 22.3333C18.5 23.0994 18.6509 23.8579 18.944 24.5657C19.2372 25.2734 19.6669 25.9164 20.2085 26.4581C20.7502 26.9998 21.3933 27.4295 22.101 27.7226C22.8087 28.0158 23.5673 28.1667 24.3333 28.1667C25.0994 28.1667 25.8579 28.0158 26.5657 27.7226C27.2734 27.4295 27.9164 26.9998 28.4581 26.4581C28.9998 25.9164 29.4295 25.2734 29.7226 24.5657C30.0158 23.8579 30.1667 23.0994 30.1667 22.3333C30.1667 21.5673 30.0158 20.8087 29.7226 20.101C29.4295 19.3933 28.9998 18.7502 28.4581 18.2085C27.9164 17.6669 27.2734 17.2372 26.5657 16.944C25.8579 16.6509 25.0994 16.5 24.3333 16.5C23.5673 16.5 22.8087 16.6509 22.101 16.944C21.3933 17.2372 20.7502 17.6669 20.2085 18.2085C19.6669 18.7502 19.2372 19.3933 18.944 20.101C18.6509 20.8087 18.5 21.5673 18.5 22.3333Z" stroke="#151538" stroke-width="1.75" stroke-linecap="round" stroke-linejoin="round"/>
</svg>
