<svg width="276" height="276" viewBox="0 0 276 276" fill="none" xmlns="http://www.w3.org/2000/svg">
<circle cx="137.644" cy="137.644" r="137.644" fill="white" fill-opacity="0.15"/>
<circle cx="137.644" cy="137.644" r="106.867" fill="white" fill-opacity="0.37"/>
<path d="M138.497 215.445C180.992 215.445 215.441 180.996 215.441 138.501C215.441 96.0059 180.992 61.5569 138.497 61.5569C96.0018 61.5569 61.5527 96.0059 61.5527 138.501C61.5527 180.996 96.0018 215.445 138.497 215.445Z" fill="white"/>
<path d="M127.572 166.047C126.033 166.047 124.571 165.431 123.494 164.354L101.718 142.579C99.4871 140.348 99.4871 136.654 101.718 134.423C103.95 132.192 107.643 132.192 109.875 134.423L127.572 152.12L167.121 112.571C169.352 110.339 173.046 110.339 175.277 112.571C177.508 114.802 177.508 118.495 175.277 120.727L131.65 164.354C130.573 165.431 129.111 166.047 127.572 166.047Z" fill="#652E0E"/>
</svg>
